<svg width="60" height="60" viewBox="0 0 60 60" fill="none" xmlns="http://www.w3.org/2000/svg">
<path fill-rule="evenodd" clip-rule="evenodd" d="M5 30.0376C5 16.8678 15.525 5 30.05 5C44.25 5 55 16.6425 55 29.9624C55 45.4106 42.4 55 30 55C25.9 55 21.35 53.8983 17.7 51.7451C16.425 50.969 15.35 50.3931 13.975 50.8438L8.925 52.346C7.65 52.7466 6.5 51.7451 6.875 50.3931L8.55 44.7847C8.825 44.0085 8.775 43.1823 8.375 42.5313C6.225 38.5754 5 34.2439 5 30.0376ZM26.75 30.0376C26.75 31.8152 28.175 33.2424 29.95 33.2674C31.725 33.2674 33.15 31.8152 33.15 30.0626C33.15 28.2849 31.725 26.8578 29.95 26.8578C28.2 26.8328 26.75 28.2849 26.75 30.0376ZM38.275 30.0626C38.275 31.8152 39.7 33.2674 41.475 33.2674C43.25 33.2674 44.675 31.8152 44.675 30.0626C44.675 28.2849 43.25 26.8578 41.475 26.8578C39.7 26.8578 38.275 28.2849 38.275 30.0626ZM18.425 33.2674C16.675 33.2674 15.225 31.8152 15.225 30.0626C15.225 28.2849 16.65 26.8578 18.425 26.8578C20.2 26.8578 21.625 28.2849 21.625 30.0626C21.625 31.8152 20.2 33.2424 18.425 33.2674Z" fill="#BC8B5E"/>
</svg>
