<svg width="60" height="60" viewBox="0 0 60 60" fill="none" xmlns="http://www.w3.org/2000/svg">
<path fill-rule="evenodd" clip-rule="evenodd" d="M36.1931 11.1052L54.3651 42.643C54.765 43.5844 54.94 44.3499 54.99 45.1451C55.0899 47.003 54.4401 48.8089 53.1653 50.1986C51.8905 51.5834 50.1658 52.4009 48.2911 52.5H11.6973C10.9224 52.4529 10.1475 52.2771 9.42264 52.0046C5.79825 50.543 4.04855 46.4307 5.5233 42.866L23.8202 11.0829C24.4451 9.96569 25.395 9.00205 26.5698 8.38273C29.9692 6.49755 34.2935 7.73617 36.1931 11.1052ZM32.1688 31.8893C32.1688 33.0784 31.194 34.0718 29.9942 34.0718C28.7944 34.0718 27.7945 33.0784 27.7945 31.8893V24.8812C27.7945 23.6896 28.7944 22.726 29.9942 22.726C31.194 22.726 32.1688 23.6896 32.1688 24.8812V31.8893ZM29.9942 42.544C28.7944 42.544 27.7945 41.5506 27.7945 40.364C27.7945 39.1724 28.7944 38.1815 29.9942 38.1815C31.194 38.1815 32.1688 39.1501 32.1688 40.3367C32.1688 41.5506 31.194 42.544 29.9942 42.544Z" fill="#BC8B5E"/>
</svg>
