<svg width="50" height="50" viewBox="0 0 50 50" fill="none" xmlns="http://www.w3.org/2000/svg">
<path fill-rule="evenodd" clip-rule="evenodd" d="M6.82902 34.2787C7.07894 33.9325 7.65301 33.3742 7.65301 33.3742C9.68454 31.2066 14.7374 27.9419 17.3009 26.8935C17.3009 26.8715 18.8252 26.2498 19.5502 26.2254L19.6467 26.2254C20.7577 26.2254 21.797 26.8471 22.329 27.8468C22.5483 28.2589 22.7523 29.2612 22.8507 29.7448C22.8833 29.905 22.9043 30.0083 22.9105 30.0143C23.1282 31.4431 23.2718 33.635 23.2718 36.0415C23.2718 38.5675 23.1282 40.8545 22.861 42.2613C22.861 42.2857 22.5962 43.5706 22.4255 43.9997C22.1607 44.619 21.6757 45.1432 21.072 45.4773C20.5895 45.7162 20.0797 45.8333 19.5502 45.8333C18.9934 45.8113 17.9542 45.4529 17.5434 45.2871C14.8339 44.2387 9.6598 40.8082 7.67776 38.7113C7.4567 38.4935 7.22512 38.2456 7.06398 38.0731C6.97801 37.9811 6.91209 37.9106 6.87851 37.8775C6.46775 37.3533 6.25 36.7096 6.25 36.0171C6.25 35.4003 6.44301 34.781 6.82902 34.2787ZM21.1704 12.0236C22.2616 12.0236 23.145 12.894 23.145 13.9693C23.145 15.0445 22.2616 15.915 21.1704 15.915L11.6312 16.4514C10.2405 16.4514 9.11458 15.3395 9.11458 13.9693C9.11458 12.599 10.2405 11.4897 11.6312 11.4897L21.1704 12.0236ZM27.5742 6.00009C27.8414 5.3808 28.3239 4.85659 28.9277 4.52256C29.4102 4.28361 29.92 4.16658 30.452 4.16658C31.0063 4.18853 32.0481 4.54694 32.4588 4.71517C35.1659 5.76115 40.3401 9.19411 42.3247 11.2885C42.5405 11.5027 42.7675 11.746 42.928 11.918C43.0178 12.0143 43.0869 12.0883 43.1215 12.1224C43.5322 12.649 43.75 13.2903 43.75 13.9803C43.75 14.602 43.557 15.2213 43.1685 15.7211C42.921 16.0673 42.347 16.6257 42.347 16.6257C40.3179 18.7957 35.2624 22.0579 32.6989 23.1064C32.6989 23.1307 31.177 23.75 30.452 23.7744L30.3555 23.7744C29.242 23.7744 28.2027 23.1551 27.6707 22.153C27.4536 21.7418 27.2491 20.7426 27.1499 20.2579L27.1498 20.2578C27.1167 20.096 27.0953 19.9916 27.0891 19.9855C26.8714 18.5567 26.7279 16.3648 26.7279 13.9583C26.7279 11.4324 26.8714 9.14535 27.1386 7.73852C27.1386 7.71657 27.4034 6.42921 27.5742 6.00009ZM26.8553 36.0301C26.8553 37.1053 27.7386 37.9757 28.8299 37.9757L38.3689 38.5121C39.7595 38.5121 40.8854 37.4003 40.8854 36.0301C40.8854 34.6598 39.7595 33.5504 38.3689 33.5504L28.8299 34.0844C27.7386 34.0844 26.8553 34.9548 26.8553 36.0301Z" fill="white"/>
</svg>
