<svg width="60" height="60" viewBox="0 0 60 60" fill="none" xmlns="http://www.w3.org/2000/svg">
<path fill-rule="evenodd" clip-rule="evenodd" d="M19.525 5H40.4775C48.2 5 52.5 9.45 52.5 17.075V42.9C52.5 50.65 48.2 55 40.4775 55H19.525C11.925 55 7.5 50.65 7.5 42.9V17.075C7.5 9.45 11.925 5 19.525 5ZM20.2008 16.65V16.625H27.6733C28.7508 16.625 29.6258 17.5 29.6258 18.5725C29.6258 19.675 28.7508 20.55 27.6733 20.55H20.2008C19.1233 20.55 18.2508 19.675 18.2508 18.6C18.2508 17.525 19.1233 16.65 20.2008 16.65ZM20.2008 31.8499H39.8008C40.8758 31.8499 41.7508 30.9749 41.7508 29.8999C41.7508 28.8249 40.8758 27.9474 39.8008 27.9474H20.2008C19.1233 27.9474 18.2508 28.8249 18.2508 29.8999C18.2508 30.9749 19.1233 31.8499 20.2008 31.8499ZM20.2008 43.275H39.8008C40.7983 43.175 41.5508 42.3225 41.5508 41.325C41.5508 40.3001 40.7983 39.4501 39.8008 39.3501H20.2008C19.4508 39.2751 18.7258 39.6251 18.3258 40.2751C17.9258 40.9001 17.9258 41.725 18.3258 42.375C18.7258 43 19.4508 43.375 20.2008 43.275Z" fill="#BC8B5E"/>
</svg>
