<svg width="50" height="50" viewBox="0 0 50 50" fill="none" xmlns="http://www.w3.org/2000/svg">
<path fill-rule="evenodd" clip-rule="evenodd" d="M16.2708 4.16675H33.7312C40.1667 4.16675 43.75 7.87508 43.75 14.2292V35.7501C43.75 42.2084 40.1667 45.8334 33.7312 45.8334H16.2708C9.9375 45.8334 6.25 42.2084 6.25 35.7501V14.2292C6.25 7.87508 9.9375 4.16675 16.2708 4.16675ZM16.834 13.8751V13.8542H23.0611C23.959 13.8542 24.6882 14.5834 24.6882 15.4772C24.6882 16.3959 23.959 17.1251 23.0611 17.1251H16.834C15.9361 17.1251 15.209 16.3959 15.209 15.5001C15.209 14.6042 15.9361 13.8751 16.834 13.8751ZM16.834 26.5416H33.1673C34.0631 26.5416 34.7923 25.8125 34.7923 24.9166C34.7923 24.0208 34.0631 23.2896 33.1673 23.2896H16.834C15.9361 23.2896 15.209 24.0208 15.209 24.9166C15.209 25.8125 15.9361 26.5416 16.834 26.5416ZM16.834 36.0626H33.1673C33.9986 35.9793 34.6257 35.2689 34.6257 34.4376C34.6257 33.5835 33.9986 32.8751 33.1673 32.7918H16.834C16.209 32.7293 15.6048 33.021 15.2715 33.5626C14.9382 34.0835 14.9382 34.771 15.2715 35.3126C15.6048 35.8334 16.209 36.1459 16.834 36.0626Z" fill="white"/>
</svg>
