<svg width="50" height="50" viewBox="0 0 50 50" fill="none" xmlns="http://www.w3.org/2000/svg">
<path fill-rule="evenodd" clip-rule="evenodd" d="M4.16602 25.0314C4.16602 14.0566 12.9369 4.16675 25.041 4.16675C36.8744 4.16675 45.8327 13.8688 45.8327 24.9688C45.8327 37.8423 35.3327 45.8334 24.9994 45.8334C21.5827 45.8334 17.791 44.9154 14.7493 43.121C13.6868 42.4742 12.791 41.9943 11.6452 42.3699L7.43685 43.6218C6.37435 43.9556 5.41602 43.121 5.72852 41.9943L7.12435 37.3206C7.35352 36.6738 7.31185 35.9853 6.97852 35.4428C5.18685 32.1462 4.16602 28.5366 4.16602 25.0314ZM22.291 25.0314C22.291 26.5128 23.4785 27.702 24.9577 27.7229C26.4368 27.7229 27.6243 26.5128 27.6243 25.0522C27.6243 23.5709 26.4368 22.3816 24.9577 22.3816C23.4993 22.3607 22.291 23.5709 22.291 25.0314ZM31.8952 25.0522C31.8952 26.5128 33.0827 27.7229 34.5619 27.7229C36.041 27.7229 37.2285 26.5128 37.2285 25.0522C37.2285 23.5709 36.041 22.3816 34.5619 22.3816C33.0827 22.3816 31.8952 23.5709 31.8952 25.0522ZM15.3535 27.7229C13.8952 27.7229 12.6868 26.5128 12.6868 25.0522C12.6868 23.5709 13.8743 22.3816 15.3535 22.3816C16.8327 22.3816 18.0202 23.5709 18.0202 25.0522C18.0202 26.5128 16.8327 27.7021 15.3535 27.7229Z" fill="white"/>
</svg>
