<svg width="60" height="60" viewBox="0 0 60 60" fill="none" xmlns="http://www.w3.org/2000/svg">
<path fill-rule="evenodd" clip-rule="evenodd" d="M8.19483 41.1346C8.49473 40.7191 9.18362 40.0491 9.18362 40.0491C11.6214 37.448 17.6848 33.5304 20.7611 32.2723C20.7611 32.2459 22.5902 31.4998 23.4602 31.4706L23.576 31.4706C24.9093 31.4706 26.1564 32.2167 26.7948 33.4163C27.058 33.9108 27.3028 35.1136 27.4209 35.6939C27.46 35.8861 27.4852 36.01 27.4926 36.0173C27.7539 37.7318 27.9261 40.3621 27.9261 43.2499C27.9261 46.2811 27.7539 49.0255 27.4332 50.7137C27.4332 50.7429 27.1155 52.2848 26.9106 52.7998C26.5929 53.5429 26.0109 54.172 25.2864 54.5728C24.7073 54.8596 24.0957 55 23.4602 55C22.7921 54.9737 21.545 54.5436 21.0521 54.3446C17.8007 53.0865 11.5918 48.9699 9.21331 46.4537C8.94805 46.1923 8.67016 45.8949 8.47679 45.6879C8.37362 45.5774 8.2945 45.4928 8.25421 45.4531C7.7613 44.824 7.5 44.0516 7.5 43.2207C7.5 42.4804 7.73161 41.7373 8.19483 41.1346ZM25.4045 14.4284C26.714 14.4284 27.774 15.473 27.774 16.7632C27.774 18.0535 26.714 19.098 25.4045 19.098L13.9574 19.7417C12.2886 19.7417 10.9375 18.4076 10.9375 16.7632C10.9375 15.1189 12.2886 13.7877 13.9574 13.7877L25.4045 14.4284ZM33.089 7.20021C33.4097 6.45706 33.9887 5.82801 34.7132 5.42717C35.2923 5.14044 35.904 5 36.5424 5C37.2075 5.02633 38.4577 5.45643 38.9506 5.65831C42.1991 6.91348 48.4082 11.033 50.7896 13.5463C51.0485 13.8033 51.3208 14.0951 51.5134 14.3015L51.5136 14.3017C51.6214 14.4172 51.7042 14.506 51.7458 14.5469C52.2387 15.1789 52.5 15.9484 52.5 16.7764C52.5 17.5225 52.2684 18.2656 51.8022 18.8654C51.5052 19.2809 50.8163 19.9509 50.8163 19.9509C48.3814 22.5549 42.3149 26.4696 39.2386 27.7277C39.2386 27.757 37.4124 28.5002 36.5424 28.5294L36.4266 28.5294C35.0904 28.5294 33.8432 27.7863 33.2048 26.5837C32.9443 26.0902 32.6989 24.8913 32.5798 24.3096L32.5798 24.3096C32.5401 24.1154 32.5144 23.99 32.507 23.9827C32.2457 22.2682 32.0734 19.6379 32.0734 16.7501C32.0734 13.7189 32.2457 10.9745 32.5664 9.28632C32.5664 9.25999 32.8841 7.71516 33.089 7.20021ZM32.2263 43.2362C32.2263 44.5265 33.2864 45.571 34.5959 45.571L46.0427 46.2147C47.7114 46.2147 49.0625 44.8805 49.0625 43.2362C49.0625 41.5919 47.7114 40.2606 46.0427 40.2606L34.5959 40.9014C33.2864 40.9014 32.2263 41.9459 32.2263 43.2362Z" fill="#BC8B5E"/>
</svg>
