<svg width="50" height="50" viewBox="0 0 50 50" fill="none" xmlns="http://www.w3.org/2000/svg">
<path fill-rule="evenodd" clip-rule="evenodd" d="M30.1603 9.25436L45.3036 35.5359C45.6369 36.3203 45.7827 36.9582 45.8243 37.6209C45.9076 39.1692 45.3661 40.6741 44.3037 41.8322C43.2414 42.9862 41.8042 43.6674 40.2419 43.75H9.74707C9.10134 43.7108 8.45562 43.5642 7.85155 43.3371C4.83123 42.1191 3.37314 38.6923 4.6021 35.7217L19.8495 9.23578C20.3703 8.30475 21.1618 7.5017 22.1408 6.98561C24.9737 5.41463 28.5772 6.44681 30.1603 9.25436ZM26.8067 26.5744C26.8067 27.5653 25.9943 28.3931 24.9945 28.3931C23.9947 28.3931 23.1615 27.5653 23.1615 26.5744V20.7343C23.1615 19.7414 23.9947 18.9383 24.9945 18.9383C25.9943 18.9383 26.8067 19.7414 26.8067 20.7343V26.5744ZM24.9945 35.4533C23.9947 35.4533 23.1615 34.6255 23.1615 33.6366C23.1615 32.6437 23.9947 31.8179 24.9945 31.8179C25.9943 31.8179 26.8067 32.6251 26.8067 33.6139C26.8067 34.6255 25.9943 35.4533 24.9945 35.4533Z" fill="white"/>
</svg>
