<svg width="45" height="45" viewBox="0 0 45 45" fill="none" xmlns="http://www.w3.org/2000/svg">
<path d="M40.513 11.8193C40.356 10.7693 39.8279 9.81031 39.0245 9.11618C38.2211 8.42205 37.1957 8.03874 36.134 8.03572H8.86637C7.80467 8.03874 6.77918 8.42205 5.97581 9.11618C5.17245 9.81031 4.64437 10.7693 4.4873 11.8193L22.5002 23.4751L40.513 11.8193Z" fill="white"/>
<path d="M23.1543 25.9232C22.9593 26.0493 22.732 26.1164 22.4998 26.1164C22.2676 26.1164 22.0403 26.0493 21.8453 25.9232L4.41943 14.6483V32.5177C4.42071 33.6966 4.8896 34.8269 5.72321 35.6605C6.55683 36.4941 7.68709 36.963 8.866 36.9643H36.1336C37.3125 36.963 38.4428 36.4941 39.2764 35.6605C40.11 34.8269 40.5789 33.6966 40.5801 32.5177V14.6471L23.1543 25.9232Z" fill="white"/>
</svg>
