<svg width="36" height="36" viewBox="0 0 36 36" fill="none" xmlns="http://www.w3.org/2000/svg">
<path d="M31.2803 7.71975L23.7803 0.219727C23.6396 0.0791016 23.4492 0 23.25 0H7.49995C5.84543 0 4.5 1.34543 4.5 3.00002V33C4.5 34.6546 5.84543 36 7.50002 36H28.5C30.1546 36 31.5 34.6546 31.5 33V8.24998C31.5 8.05078 31.4209 7.86037 31.2803 7.71975ZM24 2.56057L28.9394 7.50002H25.5C24.6731 7.50002 24 6.82692 24 6.00005V2.56057ZM30 33C30 33.8269 29.3269 34.5 28.5 34.5H7.50002C6.67315 34.5 6.00005 33.8269 6.00005 33V3.00002C6.00005 2.17315 6.67315 1.50005 7.50002 1.50005H22.5V6.00005C22.5 7.65457 23.8454 9 25.5 9H30V33Z" fill="white"/>
<path d="M24.75 15H11.25C10.8355 15 10.5 15.3355 10.5 15.75C10.5 16.1646 10.8355 16.5 11.25 16.5H24.75C25.1646 16.5 25.5 16.1646 25.5 15.75C25.5 15.3355 25.1646 15 24.75 15Z" fill="white"/>
<path d="M24.75 19.5H11.25C10.8355 19.5 10.5 19.8355 10.5 20.25C10.5 20.6646 10.8355 21 11.25 21H24.75C25.1646 21 25.5 20.6646 25.5 20.25C25.5 19.8355 25.1646 19.5 24.75 19.5Z" fill="white"/>
<path d="M24.75 24H11.25C10.8355 24 10.5 24.3355 10.5 24.75C10.5 25.1646 10.8355 25.5 11.25 25.5H24.75C25.1646 25.5 25.5 25.1646 25.5 24.75C25.5 24.3355 25.1646 24 24.75 24Z" fill="white"/>
<path d="M18.75 28.5H11.25C10.8355 28.5 10.5 28.8355 10.5 29.25C10.5 29.6646 10.8355 30 11.25 30H18.75C19.1646 30 19.5001 29.6646 19.5001 29.25C19.5 28.8355 19.1646 28.5 18.75 28.5Z" fill="white"/>
</svg>
