<svg width="20" height="20" viewBox="0 0 20 20" fill="none" xmlns="http://www.w3.org/2000/svg">
<g clip-path="url(#clip0_815_2096)">
<path d="M18.3049 2.0946C16.1128 -0.050171 12.6086 -0.0497044 10.4171 2.09566L1.22597 11.2868C-0.43597 12.988 -0.404209 15.7142 1.29692 17.3762C2.97005 19.0108 5.64217 19.0108 7.31531 17.3762L15.638 9.05345C16.72 7.97148 16.72 6.21722 15.638 5.13526C14.5561 4.05329 12.8018 4.05329 11.7198 5.13526L3.75896 13.0961C3.48129 13.3836 3.48926 13.8418 3.77677 14.1194C4.05724 14.3903 4.50185 14.3903 4.78232 14.1194L12.7432 6.15858C13.2711 5.65285 14.109 5.67088 14.6147 6.19878C15.1051 6.71073 15.1051 7.51817 14.6147 8.03013L6.29199 16.3528C5.16766 17.4612 3.35768 17.4482 2.24934 16.3239C1.15219 15.2109 1.15219 13.4231 2.24934 12.3102L11.4405 3.11898C13.0777 1.48121 15.7325 1.48074 17.3702 3.11787C19.008 4.75501 19.0085 7.40987 17.3713 9.04764L8.18016 18.2388C7.87658 18.4988 7.84122 18.9557 8.1012 19.2593C8.36119 19.5628 8.81806 19.5982 9.12164 19.3382C9.14996 19.314 9.17634 19.2876 9.2006 19.2593L18.3918 10.0681C20.5696 7.84227 20.5307 4.2724 18.3049 2.0946Z" fill="white"/>
</g>
<defs>
<clipPath id="clip0_815_2096">
<rect width="20" height="20" fill="white"/>
</clipPath>
</defs>
</svg>
