<svg width="45" height="45" viewBox="0 0 45 45" fill="none" xmlns="http://www.w3.org/2000/svg">
<path d="M36.6664 30.0078L32.1112 26.8252C31.5155 26.4098 30.8192 26.1907 30.0972 26.1907C28.9492 26.1907 27.8715 26.7538 27.215 27.6958L26.1576 29.2113C24.3854 28.0227 22.4078 26.3631 20.5226 24.4782C18.6378 22.5934 16.9785 20.6158 15.7903 18.8436L17.305 17.7862C18.0772 17.2485 18.5928 16.4431 18.7566 15.5189C18.92 14.5953 18.714 13.6622 18.1757 12.8897L14.9938 8.3345C14.3284 7.38281 13.2548 6.81427 12.1215 6.81427C11.7288 6.81427 11.3436 6.88362 10.9769 7.01889C10.5604 7.1727 10.1725 7.36153 9.79209 7.60048L9.16312 8.04337C9.00588 8.16559 8.85962 8.29948 8.71955 8.43956C7.95222 9.20654 7.40771 10.1775 7.10044 11.3255C5.78929 16.2405 9.03746 23.6728 15.1829 29.8183C20.3438 34.9791 26.5438 38.185 31.3631 38.1857H31.3634C32.1887 38.1857 32.9667 38.0896 33.676 37.9001C34.8241 37.5932 35.795 37.0486 36.5627 36.281C36.7021 36.1416 36.8353 35.9953 36.9781 35.8106L37.4213 35.1782C37.638 34.8322 37.8264 34.4442 37.9823 34.0247C38.5182 32.5758 37.9772 30.9238 36.6664 30.0078Z" fill="white"/>
</svg>
