<svg width="25" height="25" viewBox="0 0 25 25" fill="none" xmlns="http://www.w3.org/2000/svg">
<path d="M19.4301 24.361L12.5 20.0244L5.56987 24.361C5.31811 24.5205 4.99335 24.5083 4.75092 24.3323C4.50917 24.1571 4.39828 23.8524 4.47123 23.5627L6.4539 15.6312L0.261905 10.3813C0.0329983 10.1896 -0.056406 9.87776 0.0358792 9.59382C0.128164 9.30915 0.384219 9.10959 0.681778 9.08884L8.76352 8.52449L11.8205 0.942065C12.0451 0.388452 12.9549 0.388452 13.1795 0.942065L16.2365 8.52449L24.3182 9.08884C24.6158 9.10959 24.8718 9.30915 24.9641 9.59382C25.0564 9.87776 24.967 10.1896 24.7381 10.3813L18.546 15.6313L20.5287 23.5628C20.6017 23.8525 20.4908 24.1572 20.249 24.3324C20.0016 24.5121 19.6778 24.5162 19.4301 24.361Z" fill="#F9DF5A"/>
</svg>
