<svg width="45" height="45" viewBox="0 0 45 45" fill="none" xmlns="http://www.w3.org/2000/svg">
<path d="M22.1221 23.6782C22.2474 23.6828 22.3731 23.686 22.4999 23.686C22.6175 23.686 22.7345 23.6834 22.8512 23.6791C25.5058 23.7364 28.1168 24.4389 30.4237 25.7228C31.1392 26.1209 32.042 25.8638 32.4402 25.1483C32.8383 24.4328 32.5812 23.53 31.8657 23.1318C30.8036 22.5408 29.6873 22.0538 28.5349 21.675C30.9898 19.8346 32.5812 16.902 32.5812 13.6048C32.5812 8.04584 28.0586 3.52353 22.4999 3.52353C16.941 3.52353 12.4187 8.04584 12.4187 13.6048C12.4187 16.904 14.0118 19.8384 16.4693 21.6785C14.218 22.4195 12.1054 23.5722 10.2563 25.093C6.86642 27.8814 4.50942 31.7708 3.61961 36.0446C3.34076 37.3839 3.67491 38.7593 4.53606 39.8185C5.39286 40.8722 6.66373 41.4765 8.02233 41.4765H19.609C20.4276 41.4765 21.0915 40.8128 21.0915 39.9939C21.0915 39.1751 20.4276 38.5114 19.609 38.5114H8.02233C7.38936 38.5114 7.00772 38.1581 6.8363 37.9476C6.54067 37.5839 6.42629 37.1108 6.52242 36.649C8.062 29.2539 14.5881 23.8534 22.1221 23.6782ZM15.3838 13.6048C15.3838 9.68098 18.5758 6.4886 22.4999 6.4886C26.4237 6.4886 29.6161 9.68098 29.6161 13.6048C29.6161 17.4104 26.6134 20.5275 22.8529 20.7123C22.7351 20.7099 22.6175 20.7085 22.4999 20.7085C22.3841 20.7085 22.2686 20.7102 22.153 20.7123C18.3897 20.531 15.3838 17.4125 15.3838 13.6048ZM41.4764 31.086C41.4778 32.0763 41.0907 33.0069 40.3868 33.707L37.6293 36.4492C37.3401 36.737 36.9619 36.8806 36.584 36.8806C36.2033 36.8806 35.8225 36.7347 35.5326 36.4434C34.9553 35.8628 34.9579 34.9243 35.5384 34.347L37.3867 32.5089H28.9852C27.3301 32.5089 25.9839 33.8553 25.9839 35.5101C25.9839 37.1649 27.3138 38.5114 28.949 38.5114C29.7675 38.5114 30.4315 39.1751 30.4315 39.9939C30.4315 40.8128 29.7675 41.4765 28.949 41.4765C27.3544 41.4765 25.8603 40.8539 24.7423 39.7232C23.6307 38.5991 23.0188 37.103 23.0188 35.5101C23.0188 32.2202 25.6952 29.5438 28.9852 29.5438H37.2506L35.5413 27.8536C34.9593 27.2777 34.9538 26.339 35.5298 25.7569C36.1054 25.1749 37.0441 25.1694 37.6264 25.7454L40.3796 28.4678C41.0855 29.1659 41.475 30.0957 41.4764 31.086Z" fill="white"/>
</svg>
