<svg width="179" height="65" viewBox="0 0 179 65" fill="none" xmlns="http://www.w3.org/2000/svg">
<g clip-path="url(#clip0_970_23)">
<path d="M71.285 11.855H68.06V9.5H77.465V11.855H74.255V20H71.285V11.855ZM88.5615 9.5V20H85.5915V15.905H81.5415V20H78.5715V9.5H81.5415V13.445H85.5915V9.5H88.5615ZM99.0864 17.705V20H90.6564V9.5H98.8914V11.795H93.5964V13.565H98.2614V15.785H93.5964V17.705H99.0864ZM77.48 35.705V38H69.05V27.5H77.285V29.795H71.99V31.565H76.655V33.785H71.99V35.705H77.48ZM89.1181 27.5V38H86.6731L82.0381 32.405V38H79.1281V27.5H81.5731L86.2081 33.095V27.5H89.1181ZM91.2131 27.5H96.1781C97.3281 27.5 98.3481 27.715 99.2381 28.145C100.128 28.575 100.818 29.185 101.308 29.975C101.798 30.765 102.043 31.69 102.043 32.75C102.043 33.81 101.798 34.735 101.308 35.525C100.818 36.315 100.128 36.925 99.2381 37.355C98.3481 37.785 97.3281 38 96.1781 38H91.2131V27.5ZM96.0581 35.63C96.9581 35.63 97.6781 35.375 98.2181 34.865C98.7681 34.355 99.0431 33.65 99.0431 32.75C99.0431 31.85 98.7681 31.145 98.2181 30.635C97.6781 30.125 96.9581 29.87 96.0581 29.87H94.1831V35.63H96.0581ZM108.901 38.21C107.791 38.21 106.791 37.975 105.901 37.505C105.021 37.035 104.326 36.385 103.816 35.555C103.316 34.725 103.066 33.79 103.066 32.75C103.066 31.71 103.316 30.775 103.816 29.945C104.326 29.115 105.021 28.465 105.901 27.995C106.791 27.525 107.791 27.29 108.901 27.29C110.011 27.29 111.006 27.525 111.886 27.995C112.776 28.465 113.471 29.115 113.971 29.945C114.481 30.775 114.736 31.71 114.736 32.75C114.736 33.79 114.481 34.725 113.971 35.555C113.471 36.385 112.776 37.035 111.886 37.505C111.006 37.975 110.011 38.21 108.901 38.21ZM108.901 35.75C109.431 35.75 109.911 35.625 110.341 35.375C110.771 35.125 111.111 34.775 111.361 34.325C111.611 33.865 111.736 33.34 111.736 32.75C111.736 32.16 111.611 31.64 111.361 31.19C111.111 30.73 110.771 30.375 110.341 30.125C109.911 29.875 109.431 29.75 108.901 29.75C108.371 29.75 107.891 29.875 107.461 30.125C107.031 30.375 106.691 30.73 106.441 31.19C106.191 31.64 106.066 32.16 106.066 32.75C106.066 33.34 106.191 33.865 106.441 34.325C106.691 34.775 107.031 35.125 107.461 35.375C107.891 35.625 108.371 35.75 108.901 35.75ZM116.291 27.5H121.256C122.406 27.5 123.426 27.715 124.316 28.145C125.206 28.575 125.896 29.185 126.386 29.975C126.876 30.765 127.121 31.69 127.121 32.75C127.121 33.81 126.876 34.735 126.386 35.525C125.896 36.315 125.206 36.925 124.316 37.355C123.426 37.785 122.406 38 121.256 38H116.291V27.5ZM121.136 35.63C122.036 35.63 122.756 35.375 123.296 34.865C123.846 34.355 124.121 33.65 124.121 32.75C124.121 31.85 123.846 31.145 123.296 30.635C122.756 30.125 122.036 29.87 121.136 29.87H119.261V35.63H121.136ZM133.979 38.21C132.869 38.21 131.869 37.975 130.979 37.505C130.099 37.035 129.404 36.385 128.894 35.555C128.394 34.725 128.144 33.79 128.144 32.75C128.144 31.71 128.394 30.775 128.894 29.945C129.404 29.115 130.099 28.465 130.979 27.995C131.869 27.525 132.869 27.29 133.979 27.29C135.089 27.29 136.084 27.525 136.964 27.995C137.854 28.465 138.549 29.115 139.049 29.945C139.559 30.775 139.814 31.71 139.814 32.75C139.814 33.79 139.559 34.725 139.049 35.555C138.549 36.385 137.854 37.035 136.964 37.505C136.084 37.975 135.089 38.21 133.979 38.21ZM133.979 35.75C134.509 35.75 134.989 35.625 135.419 35.375C135.849 35.125 136.189 34.775 136.439 34.325C136.689 33.865 136.814 33.34 136.814 32.75C136.814 32.16 136.689 31.64 136.439 31.19C136.189 30.73 135.849 30.375 135.419 30.125C134.989 29.875 134.509 29.75 133.979 29.75C133.449 29.75 132.969 29.875 132.539 30.125C132.109 30.375 131.769 30.73 131.519 31.19C131.269 31.64 131.144 32.16 131.144 32.75C131.144 33.34 131.269 33.865 131.519 34.325C131.769 34.775 132.109 35.125 132.539 35.375C132.969 35.625 133.449 35.75 133.979 35.75ZM151.359 27.5V38H148.914L144.279 32.405V38H141.369V27.5H143.814L148.449 33.095V27.5H151.359ZM155.689 29.855H152.464V27.5H161.869V29.855H158.659V38H155.689V29.855ZM162.976 27.5H165.946V38H162.976V27.5ZM173.294 38.21C172.194 38.21 171.204 37.98 170.324 37.52C169.454 37.05 168.769 36.4 168.269 35.57C167.769 34.74 167.519 33.8 167.519 32.75C167.519 31.7 167.769 30.76 168.269 29.93C168.769 29.1 169.454 28.455 170.324 27.995C171.204 27.525 172.194 27.29 173.294 27.29C174.254 27.29 175.119 27.46 175.889 27.8C176.659 28.14 177.299 28.63 177.809 29.27L175.919 30.98C175.239 30.16 174.414 29.75 173.444 29.75C172.874 29.75 172.364 29.875 171.914 30.125C171.474 30.375 171.129 30.73 170.879 31.19C170.639 31.64 170.519 32.16 170.519 32.75C170.519 33.34 170.639 33.865 170.879 34.325C171.129 34.775 171.474 35.125 171.914 35.375C172.364 35.625 172.874 35.75 173.444 35.75C174.414 35.75 175.239 35.34 175.919 34.52L177.809 36.23C177.299 36.87 176.659 37.36 175.889 37.7C175.119 38.04 174.254 38.21 173.294 38.21ZM74.285 56.21C73.185 56.21 72.195 55.98 71.315 55.52C70.445 55.05 69.76 54.4 69.26 53.57C68.76 52.74 68.51 51.8 68.51 50.75C68.51 49.7 68.76 48.76 69.26 47.93C69.76 47.1 70.445 46.455 71.315 45.995C72.195 45.525 73.185 45.29 74.285 45.29C75.245 45.29 76.11 45.46 76.88 45.8C77.65 46.14 78.29 46.63 78.8 47.27L76.91 48.98C76.23 48.16 75.405 47.75 74.435 47.75C73.865 47.75 73.355 47.875 72.905 48.125C72.465 48.375 72.12 48.73 71.87 49.19C71.63 49.64 71.51 50.16 71.51 50.75C71.51 51.34 71.63 51.865 71.87 52.325C72.12 52.775 72.465 53.125 72.905 53.375C73.355 53.625 73.865 53.75 74.435 53.75C75.405 53.75 76.23 53.34 76.91 52.52L78.8 54.23C78.29 54.87 77.65 55.36 76.88 55.7C76.11 56.04 75.245 56.21 74.285 56.21ZM80.1242 45.5H83.0942V53.645H88.1042V56H80.1242V45.5ZM89.2795 45.5H92.2495V56H89.2795V45.5ZM104.353 45.5V56H101.908L97.2725 50.405V56H94.3625V45.5H96.8075L101.443 51.095V45.5H104.353ZM106.447 45.5H109.417V56H106.447V45.5ZM116.765 56.21C115.665 56.21 114.675 55.98 113.795 55.52C112.925 55.05 112.24 54.4 111.74 53.57C111.24 52.74 110.99 51.8 110.99 50.75C110.99 49.7 111.24 48.76 111.74 47.93C112.24 47.1 112.925 46.455 113.795 45.995C114.675 45.525 115.665 45.29 116.765 45.29C117.725 45.29 118.59 45.46 119.36 45.8C120.13 46.14 120.77 46.63 121.28 47.27L119.39 48.98C118.71 48.16 117.885 47.75 116.915 47.75C116.345 47.75 115.835 47.875 115.385 48.125C114.945 48.375 114.6 48.73 114.35 49.19C114.11 49.64 113.99 50.16 113.99 50.75C113.99 51.34 114.11 51.865 114.35 52.325C114.6 52.775 114.945 53.125 115.385 53.375C115.835 53.625 116.345 53.75 116.915 53.75C117.885 53.75 118.71 53.34 119.39 52.52L121.28 54.23C120.77 54.87 120.13 55.36 119.36 55.7C118.59 56.04 117.725 56.21 116.765 56.21Z" fill="white"/>
<path d="M31.683 38.8978C31.073 38.7758 30.524 38.5928 29.975 38.5318C26.864 38.2268 23.814 38.4098 20.825 38.8978C17.348 39.4468 13.932 40.1178 10.516 40.6668C8.869 40.9108 7.222 41.0328 5.575 40.7278C2.586 40.3008 0.999999 37.9828 1.488 34.6888C1.793 32.5538 2.708 30.6628 3.745 28.9548C5.758 25.4778 8.198 22.4278 10.943 19.6218C16.128 14.4368 21.923 10.1668 28.267 6.93382C32.476 4.73782 36.746 2.96882 41.382 2.23682C43.273 1.93182 45.225 1.87082 47.116 2.35882C47.604 2.48082 48.153 2.66382 48.641 2.90782C51.264 4.18882 52.179 6.26282 51.508 9.55682C51.203 11.1428 50.532 12.5458 49.8 13.9488C48.214 16.9988 46.445 19.9268 44.432 22.6718C43.883 23.3428 43.334 24.0138 42.724 24.6238C42.541 24.8068 42.297 25.0508 42.053 24.7458C41.809 24.4408 42.114 24.2578 42.297 24.0138C45.469 20.4148 47.848 16.2058 49.739 11.5698C50.044 10.6548 50.288 9.73982 50.288 8.70282C50.288 6.93382 49.495 5.83582 47.97 5.46982C46.811 5.16482 45.652 5.16482 44.432 5.22582C40.65 5.53082 36.99 6.50682 33.452 8.03182C24.241 11.9968 16.189 17.9138 9.418 25.9658C8.015 27.6128 6.734 29.3818 5.697 31.3338C5.148 32.4928 4.599 33.7128 4.355 34.9938C4.111 36.5798 4.538 37.3728 6.002 37.6778C6.551 37.8608 7.1 37.8608 7.649 37.8608C10.272 37.9218 12.834 37.4948 15.396 37.3118C16.372 37.2508 17.287 37.0678 18.263 37.0068C22.411 36.7018 26.498 36.5188 30.585 37.3728C31.256 37.4948 31.805 37.6778 32.415 37.9828C33.391 38.4708 33.818 39.2028 33.818 40.3618C33.818 40.9718 33.574 41.3378 33.086 41.4598C32.781 41.5818 32.476 41.6428 32.232 41.6428C29.609 41.6428 27.291 42.6188 25.034 43.9608C21.862 45.8518 19.117 48.2308 16.921 51.4028C16.067 52.6228 15.335 53.9038 15.091 55.4898C14.847 56.4658 14.908 57.4418 15.152 58.3568C15.701 60.4308 16.982 61.5288 18.873 61.5898C20.825 61.7118 22.655 61.1018 24.424 60.2478C27.047 58.9668 29.426 57.2588 31.805 55.4288C34.489 53.4158 36.929 51.0368 48.824 40.9718C49.251 40.4838 49.678 39.9958 50.166 39.6908C50.349 39.6298 50.532 39.5688 50.654 39.8128C50.776 39.9348 50.654 40.1178 50.593 40.2398C36.197 52.7448 31.317 57.6248 25.4 60.8578C23.875 61.7118 22.289 62.3828 20.642 62.7488C14.969 64.0908 12.102 58.9668 12.956 54.0258C13.322 52.1958 14.054 50.5488 15.091 49.0848C18.568 44.0828 23.082 40.7888 28.633 39.2638C29.182 39.1418 29.67 39.1418 30.219 39.0808C30.646 39.0808 31.134 39.0808 31.622 39.0808C31.622 39.0198 31.683 38.9588 31.683 38.8978Z" fill="#AEE2CE"/>
</g>
<defs>
<clipPath id="clip0_970_23">
<rect width="179" height="65" fill="white"/>
</clipPath>
</defs>
</svg>
