<svg width="26" height="76" viewBox="0 0 26 76" fill="none" xmlns="http://www.w3.org/2000/svg">
<path d="M24.1531 53.4964C23.6816 51.6357 23.0688 50.5031 22.2949 49.2604C21.5935 48.1358 20.9411 47.2181 20.8341 45.8958C20.1962 37.9797 17.8558 24.1406 17.4715 12.9129C17.0977 2.03659 14.3307 -0.0999381 12.9571 0.00350665C11.4356 0.118887 11.2969 4.86939 9.7094 12.1158C8.00431 19.8967 7.27262 24.1844 6.2979 29.6776C5.21357 35.7941 5.17262 39.0778 4.47526 43.0975C4.08564 45.3428 3.81093 46.8215 3.453 47.9515C3.02112 49.3188 2.77018 49.9607 1.90641 51.4076C0.242262 54.1966 -1.13264 66.3832 1.37811 70.0396C2.90093 72.257 3.85452 73.2053 6.05225 73.8259C7.43771 74.2172 10.486 75.9545 12.8105 75.9983C14.9977 76.0394 16.786 75.3471 19.9135 74.4386C22.0452 73.8193 23.2484 73.4055 24.7475 71.4732C27.2159 68.2943 25.5016 58.8171 24.1531 53.4964Z" fill="#BC8B5E"/>
</svg>
