<svg width="17" height="78" viewBox="0 0 17 78" fill="none" xmlns="http://www.w3.org/2000/svg">
<path d="M16.9871 2.708C16.9653 1.29261 16.4699 0.643005 15.2499 0.448916C13.1056 0.10695 10.5658 0 8.50083 0C6.43591 0 3.89602 0.10695 1.75044 0.448916C0.530435 0.643005 0.0350298 1.29261 0.0132668 2.708C-0.0609833 7.56947 0.180974 16.9729 0.625194 20.7741C0.702005 21.425 0.821039 22.0905 1.01819 22.7256C1.48417 24.2334 1.86312 25.7425 1.90152 27.3243C2.04106 33.0717 2.5864 39.3248 2.81556 45.6611C3.15224 55.0011 3.06902 62.2471 2.87059 66.995C2.59024 73.73 3.56957 77.9749 5.49495 78C6.60103 78.0158 7.15919 73.0302 8.64548 66.3335C11.3428 54.1693 13.8289 34.1161 14.4152 30.2831C14.6777 28.5667 14.8902 25.9379 15.7696 23.696C16.0948 22.8668 16.2484 21.8673 16.3764 20.7728C16.8194 16.9729 17.0601 7.56815 16.9871 2.708Z" fill="#BC8B5E"/>
</svg>
