<svg width="26" height="83" viewBox="0 0 26 83" fill="none" xmlns="http://www.w3.org/2000/svg">
<path d="M1.0471 61.8314C1.39204 60.568 1.73963 59.4526 2.1132 58.4771C2.75881 56.7872 3.31071 55.068 3.47992 53.2622C3.93419 48.4299 5.3243 42.3395 6.20942 35.5855C7.45769 26.0581 8.70727 15.6365 11.0437 7.59635C12.3167 3.21447 13.725 -0.20255 14.8471 0.00934713C16.1018 0.246566 17.013 4.67908 17.2225 10.5456C17.574 20.3941 18.4279 28.2863 19.0215 35.4882C19.6215 42.7767 20.3491 47.3065 20.9557 51.0953C21.2316 52.8211 21.8395 55.8183 23.145 58.0333C24.8111 60.8599 27.758 73.4298 24.6055 77.172C22.8626 79.2403 20.8464 80.0266 18.7013 81.0048C17.3645 81.6139 15.0371 82.9812 12.6668 82.9999C10.4371 83.0158 8.47556 81.7458 6.39684 80.8356C4.32073 79.9267 2.38391 78.502 1.65369 77.3919C-0.589033 73.9789 -0.303995 66.781 1.0471 61.8314Z" fill="#BC8B5E"/>
</svg>
