<svg width="27" height="83" viewBox="0 0 27 83" fill="none" xmlns="http://www.w3.org/2000/svg">
<path d="M0.93992 5.34286C2.34811 3.29872 4.16149 3.58922 6.27312 2.70047C9.02088 1.54509 10.3102 0.133704 12.5684 0.00636053C14.9677 -0.131595 18.473 2.01734 19.9301 2.29988C22.2397 2.74823 24.1163 2.94587 25.8426 5.04041C28.6907 8.49461 25.5232 25.296 24.4173 28.3894C23.5713 30.7559 23.1093 31.6208 22.2805 34.5324C21.3725 37.7227 20.2613 52.6842 20.3576 66.5129C20.4263 76.3277 19.1527 82.9814 17.1942 83C15.4983 83.0159 14.3316 77.1793 11.8478 68.321C7.71691 53.5809 7.90039 46.2441 6.10022 36.1879C5.66338 33.7445 5.20147 30.4309 4.02687 28.465C3.59795 27.7461 3.13866 26.6265 2.79552 25.6396C1.11414 20.8098 -1.37759 8.70553 0.93992 5.34286Z" fill="white"/>
</svg>
