<svg width="41" height="64" viewBox="0 0 41 64" fill="none" xmlns="http://www.w3.org/2000/svg">
<path d="M27.9613 6.79581C26.5757 0.492464 23.5722 -1.2695 22.3116 3.71833C21.7443 5.96119 19.1526 18.911 17.2637 21.7527V26.9604H32.0155L27.9613 6.79581Z" fill="#8C643F"/>
<path d="M20.5002 62.2624C16.9893 62.2624 7.85922 66.8488 2.5855 61.1178C-1.64012 56.5247 -0.0805562 45.4773 2.94951 38.0439C4.07598 35.2791 3.84219 31.4664 3.55526 28.4949C2.18436 14.2958 2.62536 1.44269 7.3478 0.347094C11.1404 -0.532566 14.1665 24.0118 20.5002 24.0118C26.834 24.0118 26.9363 0 31.7929 0C36.6415 0 38.5783 16.5863 37.8424 29.458C37.6724 32.4388 36.9231 35.2778 38.0509 38.0426C41.0797 45.4773 42.6405 56.5234 38.4149 61.1165C33.1412 66.8501 24.0112 62.2624 20.5002 62.2624Z" fill="#BC8B5E"/>
</svg>
