<svg width="25" height="80" viewBox="0 0 25 80" fill="none" xmlns="http://www.w3.org/2000/svg">
<path d="M24.0785 6.80112C23.4382 5.64532 21.614 4.07968 19.6108 3.01087C17.605 1.93942 16.122 0.18529 13.8901 0.0152816C11.5171 -0.166588 8.70116 1.32527 7.31475 1.81421C5.08943 2.59967 3.28749 3.29158 1.37577 5.18407C-2.08046 8.60928 1.93112 24.2342 3.0379 27.3036C3.75267 29.2857 4.24791 30.1476 4.86467 33.0114C7.28077 44.2359 5.44093 54.1227 6.65747 68.2571C7.33565 76.1263 6.38961 79.5607 8.20855 79.9825C9.63547 80.3133 12.8918 75.9444 14.0391 68.3718C16.297 53.4704 18.082 45.9597 19.569 34.0973C19.9493 31.0675 20.6183 28.9009 21.4703 27.3115C21.8728 26.5603 22.3196 25.6444 22.7574 24.4543C24.5123 19.6901 26.0451 10.3502 24.0785 6.80112Z" fill="#BC8B5E"/>
</svg>
