<svg width="25" height="89" viewBox="0 0 25 89" fill="none" xmlns="http://www.w3.org/2000/svg">
<path d="M1.22229 60.6728C1.3838 59.6063 1.67047 58.2762 2.14558 56.9845C2.82931 55.1244 3.4727 53.259 3.75803 51.3008C4.3314 47.3753 5.17258 42.9662 5.91688 37.8841C6.94517 30.865 7.78639 22.5556 9.08925 12.4602C10.0274 5.19209 12.4581 0 14.1553 0C15.9454 0 16.4434 3.96793 17.1514 12.0416C18.574 28.2922 20.2416 41.7209 21.3022 50.653C21.6347 53.4564 22.1582 56.2319 23.1771 58.8697C23.6912 60.2012 24.0116 61.4571 24.1664 62.3779C25.3441 69.3784 25.1152 79.6672 24.4544 85.8304C24.2808 87.448 23.4597 88.1621 20.8217 88.5C15.0934 89.2326 7.0044 89.0604 2.79837 88.6192C0.911375 88.4205 -0.0146305 87.4918 0.000174729 85.0488C0.0297852 80.5721 0.316479 66.6625 1.22229 60.6728Z" fill="#BC8B5E"/>
</svg>
