<svg width="39" height="57" viewBox="0 0 39 57" fill="none" xmlns="http://www.w3.org/2000/svg">
<path d="M15.418 16.5133C15.8536 12.3314 18.6964 5.56395 19.6519 3.57533C20.7403 1.31022 22.3447 1.45911 23.004 3.09148C23.8648 5.22632 25.0927 10.2723 25.4507 12.2091L27.3525 23.4336L18.0186 26.1932L15.418 16.5133Z" fill="#E6E6E6"/>
<path d="M19.5 55.3264C22.8403 55.3264 31.524 59.7449 36.541 54.2231C40.5604 49.7979 39.0759 39.1569 36.1949 31.9947C35.1236 29.3308 35.0828 26.7812 35.3565 23.9192C36.6608 10.2409 33.9535 0.891951 29.3471 0.636727C25.8884 0.445309 25.8384 24.0362 19.2723 22.6312C12.7062 21.2274 16.0123 0 11.3914 0C6.77845 0 2.99595 9.58684 3.64348 23.9192C3.77377 26.7918 3.87643 29.3308 2.80511 31.9947C-0.0758576 39.1569 -1.56043 49.7979 2.45897 54.2231C7.47599 59.7449 16.161 55.3264 19.5 55.3264Z" fill="white"/>
</svg>
