<svg width="22" height="84" viewBox="0 0 22 84" fill="none" xmlns="http://www.w3.org/2000/svg">
<path d="M1.28075 5.8461C1.89172 4.73416 3.00293 3.56662 4.70167 2.45733C6.15419 1.50821 8.02619 0.0375253 9.98937 0.00046055C11.6451 -0.032633 13.6877 1.72662 14.8276 2.41761C17.4604 4.01404 19.2021 4.71828 20.8839 6.67476C23.4177 9.62406 20.9152 24.344 20.4123 26.3773C20.1844 27.3 19.873 28.0267 19.5434 28.6674C19.0145 29.6933 18.7891 30.7086 18.6289 32.2468C18.0192 38.0646 17.8812 43.7779 17.9059 50.8506C17.9359 59.4165 18.2746 64.3766 18.9507 70.9172C19.7714 78.8623 19.9238 83.825 17.8668 83.9984C16.6254 84.103 14.231 79.086 11.735 71.0284C9.25463 63.0224 6.72348 49.233 4.45156 33.7598C3.96565 30.4491 2.95995 28.7058 2.20178 26.3548C1.73932 24.9238 1.36935 23.2771 1.0059 21.412C-0.167841 15.3929 -0.592542 9.26003 1.28075 5.8461Z" fill="white"/>
</svg>
