<svg width="25" height="80" viewBox="0 0 25 80" fill="none" xmlns="http://www.w3.org/2000/svg">
<path d="M0.921246 6.80112C1.56154 5.64532 3.38572 4.07968 5.38892 3.01087C7.39474 1.93942 8.87784 0.18529 11.1097 0.0152816C13.4827 -0.166588 16.2987 1.32527 17.6851 1.81421C19.9105 2.59967 21.7125 3.29158 23.6242 5.18407C27.0805 8.60928 23.0688 24.2342 21.962 27.3036C21.2473 29.2857 20.752 30.1476 20.1352 33.0114C17.7191 44.2359 19.559 54.1227 18.3425 68.2571C17.6643 76.1263 18.6103 79.5608 16.7914 79.9825C15.3644 80.3133 12.108 75.9444 10.9607 68.3718C8.70273 53.4704 6.91777 45.9597 5.43072 34.0973C5.05046 31.0675 4.38144 28.9009 3.52946 27.3115C3.12699 26.5603 2.68008 25.6444 2.24233 24.4543C0.488703 19.6901 -1.04537 10.3502 0.921246 6.80112Z" fill="white"/>
</svg>
