<svg width="41" height="71" viewBox="0 0 41 71" fill="none" xmlns="http://www.w3.org/2000/svg">
<path d="M20.5015 2.19226C16.9904 2.19226 7.85933 -3.04543 2.58535 2.67225C-1.64019 7.25457 -0.0801335 18.2745 2.94853 25.6906C4.07516 28.4493 3.68813 31.5191 3.62583 34.4953C3.28652 50.8927 6.00236 59.4692 8.97005 65.0722C12.5528 71.8342 14.8458 70.7437 14.8272 62.6722C14.8127 56.5062 16.2349 42.3149 20.4617 41.9786C24.2804 41.9786 25.4918 58.5871 25.582 66.6032C25.6363 71.4255 28.0341 73.1832 30.9845 67.1939C34.6878 59.6776 37.6052 43.5347 36.7198 34.3858C36.4335 31.4215 36.9239 28.4479 38.0505 25.6893C41.0805 18.2732 42.6405 7.25193 38.4137 2.67093C33.1437 -3.04543 24.0126 2.19226 20.5015 2.19226Z" fill="#BC8B5E"/>
</svg>
