<svg width="17" height="77" viewBox="0 0 17 77" fill="none" xmlns="http://www.w3.org/2000/svg">
<path d="M16.9837 2.65963C16.9492 1.24045 16.2438 0.628832 15.0268 0.446139C12.6234 0.0860501 9.86673 0 8.24025 0C6.61377 0 4.37626 0.0860501 1.9729 0.446139C0.755915 0.628832 0.0504586 1.23913 0.0160155 2.65963C-0.101346 7.53142 0.449738 16.4714 0.903876 20.1015C1.09523 21.6292 1.41032 22.7955 1.73945 23.7262C2.33391 25.4075 2.19996 27.0729 2.44362 28.7012C3.97825 38.9929 3.70015 57.8049 4.77427 68.4395C5.37383 74.3849 6.67118 77.3676 8.17519 76.9638C9.58736 76.5839 10.2163 73.2451 10.8158 67.3221C11.8262 57.3522 13.5062 34.8638 14.1989 28.6655C14.4043 26.824 14.7564 25.3717 15.4809 23.0987C15.7399 22.2871 15.9466 21.3035 16.0971 20.1015C16.55 16.4714 17.1023 7.53142 16.9837 2.65963Z" fill="#BC8B5E"/>
</svg>
