<svg width="22" height="84" viewBox="0 0 22 84" fill="none" xmlns="http://www.w3.org/2000/svg">
<path d="M20.7183 5.8461C20.1074 4.73416 18.9962 3.56662 17.2976 2.45733C15.8451 1.50821 13.9732 0.0375253 12.0101 0.00046055C10.3544 -0.032633 8.31188 1.72662 7.17207 2.41761C4.53941 4.01404 2.79777 4.71828 1.11604 6.67476C-1.41761 9.62406 1.08476 24.344 1.58759 26.3773C1.81555 27.3 2.12687 28.0267 2.45644 28.6674C2.98532 29.6933 3.21068 30.7086 3.37091 32.2468C3.98055 38.0646 4.11864 43.7779 4.09388 50.8506C4.06392 59.4165 3.72523 64.3766 3.04916 70.9172C2.22849 78.8623 2.07609 83.825 4.13297 83.9984C5.3744 84.103 7.76868 79.086 10.2646 71.0284C12.7448 63.0224 15.2758 49.233 17.5477 33.7598C18.0336 30.4491 19.0392 28.7058 19.7973 26.3548C20.2598 24.9238 20.6297 23.2771 20.9932 21.412C22.1682 15.3929 22.5928 9.26003 20.7183 5.8461Z" fill="white"/>
</svg>
