<svg width="41" height="74" viewBox="0 0 41 74" fill="none" xmlns="http://www.w3.org/2000/svg">
<path d="M20.5015 2.21925C24.0133 2.21925 33.1434 -3.08398 38.4176 2.70556C42.2643 6.92812 41.3079 16.5475 38.831 23.9067C37.5867 27.6034 36.4956 31.0484 37.087 36.7971C38.9711 55.1488 38.0382 71.935 34.3838 72.5254C30.503 73.1527 25.9354 42.7289 20.5015 42.6222C15.9456 42.9042 14.7497 61.4537 13.7122 69.199C12.8826 75.3918 10.3129 75.5118 8.05067 70.0319C5.32917 63.4385 2.64432 49.7652 3.44114 35.8508C3.61385 32.8407 4.07575 28.8053 2.94921 26.0113C-0.0797652 18.5019 -1.64067 7.34458 2.5855 2.70556C7.8597 -3.08267 16.9897 2.21925 20.5015 2.21925Z" fill="#BC8B5E"/>
</svg>
