<svg width="21" height="84" viewBox="0 0 21 84" fill="none" xmlns="http://www.w3.org/2000/svg">
<path d="M0.535851 62.2517C0.671861 61.2228 0.897252 59.0827 1.70425 57.1154C2.49051 55.1973 3.24959 53.2605 3.5242 51.1988C5.00606 40.0623 4.69646 27.8942 7.82081 14.563C9.89852 5.69413 10.0319 0.325227 11.4944 0.0155087C13.1187 -0.328771 15.3169 5.07203 15.4775 14.9152C15.7029 28.6904 18.1174 42.3194 18.6874 50.8639C18.9568 54.8889 19.9633 57.0529 20.2534 58.119C20.5021 59.0309 20.6692 60.077 20.7716 61.2654C21.1174 65.2505 21.0397 73.3497 20.7444 78.9193C20.5721 82.18 20.1602 83.5146 17.9153 83.7273C13.0773 84.1859 6.155 84.0489 1.81692 83.4455C0.252159 83.2275 0.114859 82.0511 0.0734081 79.8977C-0.0276279 74.6511 -0.128655 67.2922 0.535851 62.2517Z" fill="#BC8B5E"/>
</svg>
