<svg width="17" height="78" viewBox="0 0 17 78" fill="none" xmlns="http://www.w3.org/2000/svg">
<path d="M0.0132688 2.708C0.0350312 1.29261 0.530456 0.643005 1.75044 0.448916C3.89468 0.10695 6.43449 0 8.49936 0C10.5642 0 13.104 0.10695 15.2496 0.448916C16.4695 0.643005 16.965 1.29261 16.9867 2.708C17.061 7.56947 16.819 16.9729 16.3748 20.7741C16.298 21.425 16.1789 22.0905 15.9818 22.7256C15.5158 24.2334 15.1369 25.7425 15.0985 27.3243C14.959 33.0717 14.4137 39.3248 14.1845 45.6611C13.8478 55.0011 13.931 62.2471 14.1294 66.995C14.4098 73.73 13.4305 77.9749 11.5051 78C10.3991 78.0158 9.84097 73.0302 8.35472 66.3335C5.65745 54.1693 3.1714 34.1161 2.58509 30.2831C2.32266 28.5667 2.11015 25.9379 1.23069 23.696C0.905532 22.8668 0.751915 21.8673 0.623901 20.7728C0.18097 16.9729 -0.0609797 7.56815 0.0132688 2.708Z" fill="#BC8B5E"/>
</svg>
