<svg width="40" height="62" viewBox="0 0 40 62" fill="none" xmlns="http://www.w3.org/2000/svg">
<path d="M23.1431 4.13512C21.2037 0.587649 18.5508 0.851166 18.1216 5.75502C17.9149 8.12 17.304 14.0752 15.9163 18.1765L13.7109 24.6026H28.7189L23.1431 4.13512Z" fill="#E6E6E6"/>
<path d="M20 60.2733C16.5742 60.2733 7.66737 64.832 2.52208 59.135C-1.60021 54.5695 -0.0782563 43.59 2.87752 36.2022C3.97689 33.4533 3.78338 30.8368 3.7373 27.8712C3.52138 13.775 6.31255 0.751559 11.0431 0.742196C14.2912 0.735507 13.55 21.3114 19.6656 23.362C22.1592 24.198 23.2415 17.7144 23.5983 11.1933C23.9117 5.46948 22.1895 2.15209 23.4416 0.541547C24.6147 -0.968668 28.9964 0.382368 32.4393 8.41099C34.5538 13.3429 36.085 19.7851 36.2627 27.8712C36.3272 30.8368 36.0231 33.4546 37.1224 36.2022C40.0782 43.5914 41.6002 54.5709 37.4779 59.135C32.3327 64.832 23.4245 60.2733 20 60.2733Z" fill="white"/>
</svg>
