<svg width="42" height="67" viewBox="0 0 42 67" fill="none" xmlns="http://www.w3.org/2000/svg">
<path d="M20.9993 2.1806C17.4027 2.1806 8.05076 -3.02925 2.64852 2.65808C-1.68036 7.21638 -0.0821278 18.1782 3.02118 25.5564C4.17589 28.3012 4.12604 31.7041 3.89509 34.8841C2.96738 47.6199 7.10599 67.2288 10.8903 66.998C14.7704 66.7619 14.4214 43.4124 20.279 41.3746C23.6998 40.1836 24.4989 46.3075 25.2574 52.0397C26.1654 58.8996 25.6313 66.0628 27.5616 66.7962C29.8093 67.6509 34.0739 61.9068 36.34 51.4752C37.5577 45.8696 38.0826 39.5373 37.9278 34.9606C37.828 31.9995 37.8241 28.2999 38.9788 25.5551C42.0821 18.1782 43.6804 7.21506 39.3515 2.65676C33.9479 -3.02925 24.596 2.1806 20.9993 2.1806Z" fill="white"/>
</svg>
