<svg width="21" height="84" viewBox="0 0 21 84" fill="none" xmlns="http://www.w3.org/2000/svg">
<path d="M20.4641 62.2517C20.3281 61.2228 20.1027 59.0827 19.2958 57.1154C18.5095 55.1973 17.7504 53.2605 17.4758 51.1988C15.9939 40.0623 16.3035 27.8942 13.1792 14.563C11.1015 5.69413 10.968 0.325227 9.50561 0.0155087C7.88126 -0.328771 5.68308 5.07203 5.52246 14.9152C5.29707 28.6904 2.88256 42.3194 2.31262 50.8639C2.04319 54.8889 1.03673 57.0529 0.746577 58.119C0.497873 59.0309 0.330775 60.077 0.228443 61.2654C-0.117411 65.2505 -0.0396958 73.3497 0.25564 78.9193C0.42792 82.18 0.839847 83.5146 3.08466 83.7273C7.92273 84.1859 14.845 84.049 19.183 83.4455C20.7478 83.2275 20.8851 82.0511 20.9266 79.8977C21.0276 74.6511 21.1287 67.2922 20.4641 62.2517Z" fill="white"/>
</svg>
