<svg width="25" height="89" viewBox="0 0 25 89" fill="none" xmlns="http://www.w3.org/2000/svg">
<path d="M23.7777 60.6728C23.6162 59.6063 23.3295 58.2762 22.8544 56.9845C22.1707 55.1244 21.5273 53.259 21.242 51.3008C20.6686 47.3753 19.8274 42.9662 19.0831 37.8841C18.0548 30.865 17.2136 22.5556 15.9108 12.4602C14.9726 5.19209 12.5419 0 10.8447 0C9.05458 0 8.55658 3.96793 7.84862 12.0416C6.42597 28.2922 4.75839 41.7209 3.6978 50.653C3.36535 53.4564 2.84176 56.2319 1.82289 58.8697C1.30875 60.2012 0.988437 61.4571 0.833656 62.3779C-0.344033 69.3784 -0.115243 79.6672 0.545608 85.8304C0.719233 87.448 1.54025 88.1621 4.17827 88.5C9.90655 89.2326 17.9956 89.0604 22.2016 88.6192C24.0886 88.4205 25.0146 87.4918 24.9998 85.0488C24.9716 80.5721 24.6849 66.6625 23.7777 60.6728Z" fill="#BC8B5E"/>
</svg>
