<svg width="39" height="57" viewBox="0 0 39 57" fill="none" xmlns="http://www.w3.org/2000/svg">
<path d="M23.5869 16.5133C23.1512 12.3314 20.3084 5.56395 19.3529 3.57533C18.2645 1.31022 16.6602 1.45911 16.0008 3.09148C15.14 5.22632 13.9121 10.2723 13.5541 12.2091L11.6523 23.4336L20.9862 26.1932L23.5869 16.5133Z" fill="#8C643F"/>
<path d="M19.5 55.3264C16.1597 55.3264 7.47601 59.7449 2.45898 54.2231C-1.56043 49.7979 -0.0758674 39.1569 2.8051 31.9947C3.87642 29.3308 3.91724 26.7812 3.64348 23.9192C2.33922 10.2409 5.04642 0.891951 9.65281 0.636727C13.1116 0.445309 13.1616 24.0362 19.7277 22.6312C26.2938 21.2274 22.9877 0 27.6086 0C32.2215 0 36.0041 9.58684 35.3565 23.9192C35.2262 26.7918 35.1235 29.3308 36.1949 31.9947C39.0758 39.1569 40.5605 49.7979 36.541 54.2231C31.5253 59.7449 22.8403 55.3264 19.5 55.3264Z" fill="#BC8B5E"/>
</svg>
