<svg width="23" height="92" viewBox="0 0 23 92" fill="none" xmlns="http://www.w3.org/2000/svg">
<path d="M0.827826 70.2714C1.20372 68.1619 1.63086 66.2697 2.20784 64.73C2.56796 63.7706 2.85315 62.8192 2.91755 61.7949C3.29476 55.7393 4.45792 47.3595 4.89558 39.425C5.4213 29.8871 6.1284 21.2344 8.57563 10.4681C9.78873 5.13206 11.3646 0.0185947 12.7301 4.36998e-05C14.097 -0.0171823 15.2523 5.0605 15.3403 11.3281C15.5191 24.2436 16.4404 32.4988 17.3867 41.0244C18.2318 48.6382 19.1912 54.9906 19.6749 59.8895C19.901 62.1779 20.1218 62.9371 20.5345 63.9627C20.679 64.3218 20.8617 64.8545 21.0891 65.5475C21.7423 67.5391 24.4642 82.6171 21.9605 85.6158C20.2979 87.6047 18.4868 88.1758 15.8595 89.8202C14.7213 90.5318 12.0112 92.004 10.3394 92C8.35876 91.9973 6.44383 90.5596 4.9613 89.6361C3.22773 88.5561 2.08693 87.4073 1.45212 86.3048C-0.498304 82.9232 -0.249901 76.3177 0.827826 70.2714Z" fill="#BC8B5E"/>
</svg>
