<svg width="26" height="83" viewBox="0 0 26 83" fill="none" xmlns="http://www.w3.org/2000/svg">
<path d="M24.9518 61.8314C24.6068 60.568 24.2593 59.4526 23.8857 58.4771C23.2388 56.7872 22.6882 55.068 22.519 53.2622C22.0647 48.4299 20.6746 42.3395 19.7894 35.5855C18.5412 26.0581 17.2916 15.6365 14.9551 7.59635C13.6821 3.21447 12.2737 -0.20255 11.1517 0.00934713C9.89691 0.246566 8.98576 4.67908 8.7775 10.5456C8.42605 20.3941 7.57216 28.2863 6.97861 35.4882C6.37855 42.7767 5.65095 47.3065 5.04438 51.0953C4.76843 52.8211 4.16056 55.8183 2.855 58.0333C1.18889 60.8599 -1.75803 73.4298 1.39456 77.172C3.13746 79.2403 5.1537 80.0266 7.29881 81.0048C8.63561 81.6139 10.963 82.9812 13.3333 82.9999C15.563 83.0158 17.5246 81.7458 19.6033 80.8356C21.6794 79.9267 23.6163 78.502 24.3465 77.3919C26.5892 73.9789 26.3042 66.781 24.9518 61.8314Z" fill="#BC8B5E"/>
</svg>
