<svg width="27" height="83" viewBox="0 0 27 83" fill="none" xmlns="http://www.w3.org/2000/svg">
<path d="M26.0601 5.34286C24.6519 3.29872 22.8385 3.58922 20.7269 2.70047C17.9792 1.54509 16.6897 0.133704 14.4316 0.00636053C12.0323 -0.131595 8.52697 2.01734 7.06995 2.29988C4.76036 2.74823 2.88364 2.94587 1.15739 5.04041C-1.69067 8.49461 1.47678 25.296 2.58274 28.3894C3.42871 30.7559 3.89064 31.6208 4.71945 34.5324C5.62745 37.7227 6.73869 52.6842 6.64235 66.5129C6.57372 76.3277 7.84729 82.9814 9.80583 83C11.5017 83.0159 12.6684 77.1793 15.1522 68.321C19.2831 53.5809 19.0996 46.2441 20.8998 36.1879C21.3379 33.7445 21.7986 30.4309 22.9732 28.465C23.4021 27.7461 23.8613 26.6265 24.2045 25.6396C25.8859 20.8098 28.3776 8.70553 26.0601 5.34286Z" fill="white"/>
</svg>
