<svg width="40" height="62" viewBox="0 0 40 62" fill="none" xmlns="http://www.w3.org/2000/svg">
<path d="M16.8571 4.13512C18.7964 0.587649 21.4494 0.851166 21.8786 5.75502C22.0853 8.12 22.6962 14.0752 24.0839 18.1765L26.2892 24.6026H11.2812L16.8571 4.13512Z" fill="#E6E6E6"/>
<path d="M20 60.2733C23.4258 60.2733 32.3326 64.832 37.4779 59.135C41.6002 54.5695 40.0782 43.59 37.1224 36.2022C36.0231 33.4533 36.2166 30.8368 36.2627 27.8712C36.4786 13.775 33.6874 0.751559 28.9569 0.742196C25.7088 0.735507 26.45 21.3114 20.3344 23.362C17.8408 24.198 16.7585 17.7144 16.4017 11.1933C16.0884 5.46948 17.8105 2.15209 16.5584 0.541547C15.3853 -0.968668 11.0036 0.382368 7.5607 8.41099C5.44623 13.3429 3.91503 19.7851 3.73729 27.8712C3.67278 30.8368 3.97691 33.4546 2.87754 36.2022C-0.078237 43.5914 -1.60023 54.5709 2.52207 59.135C7.66736 64.832 16.5742 60.2733 20 60.2733Z" fill="white"/>
</svg>
