<svg width="42" height="67" viewBox="0 0 42 67" fill="none" xmlns="http://www.w3.org/2000/svg">
<path d="M21.0007 2.1806C24.5974 2.1806 33.9492 -3.02925 39.3515 2.65808C43.6804 7.21638 42.0821 18.1782 38.9788 25.5564C37.8241 28.3012 37.874 31.7041 38.1049 34.8841C39.0326 47.6199 34.8941 67.2288 31.1097 66.998C27.2296 66.7619 27.5786 43.4124 21.721 41.3746C18.2989 40.1836 17.5011 46.3075 16.7426 52.0397C15.8346 58.8996 16.3687 66.0628 14.4384 66.7962C12.1907 67.6509 7.92612 61.9068 5.65998 51.4752C4.44228 45.8696 3.91739 39.5373 4.07223 34.9606C4.17196 31.9995 4.17592 28.2999 3.02121 25.5551C-0.0820991 18.1782 -1.68038 7.21506 2.6485 2.65676C8.05206 -3.02925 17.4053 2.1806 21.0007 2.1806Z" fill="white"/>
</svg>
