<svg width="23" height="92" viewBox="0 0 23 92" fill="none" xmlns="http://www.w3.org/2000/svg">
<path d="M22.1726 70.2714C21.7967 68.1619 21.3696 66.2697 20.7926 64.7299C20.4325 63.7706 20.1473 62.8192 20.0829 61.7949C19.7056 55.7393 18.5425 47.3595 18.1048 39.425C17.5791 29.8871 16.8719 21.2344 14.4247 10.4681C13.2115 5.13206 11.6357 0.0185947 10.2701 4.36998e-05C8.90317 -0.0171823 7.7479 5.0605 7.65984 11.3281C7.48109 24.2436 6.55974 32.4988 5.61342 41.0244C4.76831 48.6382 3.80886 54.9906 3.32519 59.8895C3.09913 62.1779 2.87831 62.9371 2.46562 63.9627C2.32104 64.3218 2.13835 64.8545 1.91097 65.5475C1.25775 67.5391 -1.46423 82.6171 1.03956 85.6158C2.70218 87.6047 4.51334 88.1758 7.14068 89.8202C8.27889 90.5318 10.989 92.004 12.6609 92C14.6415 91.9973 16.5565 90.5596 18.0391 89.636C19.7727 88.5561 20.9135 87.4073 21.5483 86.3048C23.4975 82.9232 23.2504 76.3177 22.1726 70.2714Z" fill="white"/>
</svg>
