<svg width="17" height="77" viewBox="0 0 17 77" fill="none" xmlns="http://www.w3.org/2000/svg">
<path d="M0.0163398 2.65963C0.0507828 1.24045 0.756207 0.628832 1.97319 0.446139C4.37655 0.0860501 7.13326 0 8.75973 0C10.3862 0 12.6237 0.0860501 15.0271 0.446139C16.2441 0.628832 16.9495 1.23913 16.984 2.65963C17.1013 7.53142 16.5502 16.4714 16.0961 20.1015C15.9047 21.6292 15.5897 22.7955 15.2606 23.7262C14.6661 25.4075 14.8 27.0729 14.5564 28.7012C13.0218 38.9929 13.2999 57.8049 12.2257 68.4395C11.6262 74.3849 10.3288 77.3676 8.82479 76.9638C7.41263 76.5839 6.78373 73.2451 6.18417 67.3221C5.17384 57.3522 3.49379 34.8638 2.8011 28.6655C2.59572 26.824 2.24363 25.3717 1.51905 23.0987C1.26009 22.2871 1.05345 21.3035 0.902922 20.1015C0.448785 16.4714 -0.102297 7.53142 0.0163398 2.65963Z" fill="#BC8B5E"/>
</svg>
