<svg width="41" height="74" viewBox="0 0 41 74" fill="none" xmlns="http://www.w3.org/2000/svg">
<path d="M20.4985 2.21925C16.9867 2.21925 7.85659 -3.08398 2.58239 2.70556C-1.26433 6.92812 -0.307874 16.5475 2.16895 23.9067C3.41324 27.6034 4.50445 31.0484 3.91305 36.7971C2.02894 55.1488 2.96184 71.935 6.61623 72.5254C10.497 73.1527 15.0646 42.7289 20.4985 42.6222C25.0543 42.9042 26.2502 61.4537 27.2878 69.199C28.1173 75.3918 30.6871 75.5118 32.9493 70.0319C35.6708 63.4385 38.3556 49.7652 37.5588 35.8508C37.3861 32.8407 36.9242 28.8053 38.0508 26.0113C41.0798 18.5019 42.6407 7.34458 38.4145 2.70556C33.1403 -3.08267 24.0089 2.21925 20.4985 2.21925Z" fill="#BC8B5E"/>
</svg>
