<svg width="41" height="64" viewBox="0 0 41 64" fill="none" xmlns="http://www.w3.org/2000/svg">
<path d="M13.0386 6.79581C14.4241 0.492464 17.4276 -1.2695 18.6883 3.71833C19.2555 5.96119 21.8472 18.911 23.7362 21.7527V26.9604H8.98438L13.0386 6.79581Z" fill="#E6E6E6"/>
<path d="M20.4998 62.2624C24.0107 62.2624 33.1408 66.8488 38.4145 61.1178C42.6401 56.5247 41.0806 45.4773 38.0505 38.0439C36.924 35.2791 37.1578 31.4664 37.4448 28.4949C38.8157 14.2958 38.3746 1.44269 33.6522 0.347094C29.8596 -0.532566 26.8336 24.0118 20.4998 24.0118C14.166 24.0118 14.0637 0 9.20712 0C4.35848 0 2.42168 16.5863 3.15761 29.458C3.32765 32.4388 4.07687 35.2778 2.94906 38.0426C-0.0796745 45.4773 -1.64053 56.5234 2.58508 61.1165C7.8588 66.8501 16.9888 62.2624 20.4998 62.2624Z" fill="white"/>
</svg>
