<svg width="26" height="76" viewBox="0 0 26 76" fill="none" xmlns="http://www.w3.org/2000/svg">
<path d="M1.84688 53.4964C2.31839 51.6357 2.93119 50.5031 3.70515 49.2604C4.40647 48.1358 5.05893 47.2181 5.16591 45.8958C5.80383 37.9797 8.1442 24.1406 8.52854 12.9129C8.90231 2.03659 11.6693 -0.0999381 13.0429 0.00350665C14.5644 0.118887 14.703 4.86939 16.2906 12.1158C17.9957 19.8967 18.7274 24.1844 19.7021 29.6776C20.7864 35.7941 20.8274 39.0778 21.5247 43.0975C21.9143 45.3428 22.1891 46.8215 22.547 47.9515C22.9789 49.3188 23.2298 49.9607 24.0936 51.4076C25.7577 54.1966 27.1326 66.3832 24.6219 70.0396C23.0991 72.257 22.1455 73.2053 19.9477 73.8259C18.5623 74.2172 15.514 75.9545 13.1895 75.9983C11.0023 76.0394 9.21404 75.3471 6.0865 74.4386C3.95481 73.8193 2.75159 73.4055 1.25254 71.4732C-1.21594 68.2943 0.498393 58.8171 1.84688 53.4964Z" fill="white"/>
</svg>
