<svg width="41" height="71" viewBox="0 0 41 71" fill="none" xmlns="http://www.w3.org/2000/svg">
<path d="M20.4993 2.19226C24.0103 2.19226 33.141 -3.04543 38.4148 2.67225C42.6402 7.25457 41.0802 18.2745 38.0504 25.6906C36.9238 28.4493 37.3108 31.5191 37.3731 34.4953C37.7124 50.8927 34.9967 59.4692 32.0291 65.0722C28.4465 71.8342 26.1535 70.7437 26.1721 62.6722C26.1867 56.5062 24.7645 42.3149 20.5378 41.9786C16.7193 41.9786 15.5079 58.5871 15.4177 66.6032C15.3634 71.4255 12.9657 73.1832 10.0153 67.1939C6.31214 59.6776 3.39492 43.5347 4.28029 34.3858C4.56658 31.4215 4.07624 28.4479 2.94964 25.6893C-0.0802399 18.2732 -1.64024 7.25193 2.58515 2.67093C7.85763 -3.04543 16.9883 2.19226 20.4993 2.19226Z" fill="#BC8B5E"/>
</svg>
